<?xml version="1.0" encoding="iso-8859-1"?>
<!-- Generator: Adobe Illustrator 16.0.0, SVG Export Plug-In . SVG Version: 6.00 Build 0)  -->
<!DOCTYPE svg PUBLIC "-//W3C//DTD SVG 1.1//EN" "http://www.w3.org/Graphics/SVG/1.1/DTD/svg11.dtd">
<svg viewBox="0 0 25 25" width="25" height="25"  id="icon-catalog">
    <path fill-rule="evenodd" clip-rule="evenodd" d="M17 3.75736L12.7574 8L17 12.2426L21.2427 8L17 3.75736ZM11.3432 6.58579C10.5621 7.36683 10.5621 8.63317 11.3432 9.41421L15.5858 13.6569C16.3669 14.4379 17.6332 14.4379 18.4142 13.6569L22.6569 9.41421C23.4379 8.63317 23.4379 7.36683 22.6569 6.58579L18.4142 2.34315C17.6332 1.5621 16.3669 1.5621 15.5858 2.34315L11.3432 6.58579Z"></path>
    <path fill-rule="evenodd" clip-rule="evenodd" d="M7 5H3C2.44772 5 2 5.44772 2 6V10C2 10.5523 2.44772 11 3 11H7C7.55228 11 8 10.5523 8 10V6C8 5.44772 7.55228 5 7 5ZM3 3C1.34315 3 0 4.34315 0 6V10C0 11.6569 1.34315 13 3 13H7C8.65685 13 10 11.6569 10 10V6C10 4.34315 8.65685 3 7 3H3Z"></path>
    <path fill-rule="evenodd" clip-rule="evenodd" d="M7 17H3C2.44772 17 2 17.4477 2 18L2 22C2 22.5523 2.44772 23 3 23H7C7.55228 23 8 22.5523 8 22V18C8 17.4477 7.55228 17 7 17ZM3 15C1.34315 15 0 16.3431 0 18L0 22C0 23.6569 1.34315 25 3 25H7C8.65685 25 10 23.6569 10 22V18C10 16.3431 8.65685 15 7 15H3Z"></path>
    <path fill-rule="evenodd" clip-rule="evenodd" d="M19 17H15C14.4477 17 14 17.4477 14 18V22C14 22.5523 14.4477 23 15 23H19C19.5523 23 20 22.5523 20 22V18C20 17.4477 19.5523 17 19 17ZM15 15C13.3431 15 12 16.3431 12 18V22C12 23.6569 13.3431 25 15 25H19C20.6569 25 22 23.6569 22 22V18C22 16.3431 20.6569 15 19 15H15Z"></path>
</svg>
