<?xml version="1.0" encoding="utf-8"?>
<!-- Generator: Adobe Illustrator 23.0.5, SVG Export Plug-In . SVG Version: 6.00 Build 0)  -->
<svg version="1.1" id="Слой_1" xmlns="http://www.w3.org/2000/svg" xmlns:xlink="http://www.w3.org/1999/xlink" x="0px" y="0px"
	 viewBox="0 0 828 980" width="828" height="980" style="enable-background:new 0 0 828 980;" xml:space="preserve">
<g>
	<path d="M250,0c80.33,0,160.67,0,241,0c4.94,1.18,9.96,0.56,14.94,0.63c21.84,0.31,35.13,12.46,36.19,34.03
		c1.69,34.63,2,69.28,0.1,103.92c-0.82,14.92-14.39,29.34-28.84,30.57c-7.79,0.66-15.63,1.01-23.45,1.13
		c-12.5,0.19-25,0.13-37.5,0.04c-3.46-0.02-5.29,1.01-5.28,4.81c0.07,21,0.07,42,0,62.99c-0.01,3.58,1.68,5.15,5.02,5.5
		c1.32,0.14,2.64,0.37,3.93,0.68c53.51,13.01,102.42,35.66,145.82,69.79c7.99,6.28,15.81,12.79,23.49,19.44
		c4.1,3.55,7.64,3.65,11.96,0.36c5.97-4.55,11.94-9.07,17.41-14.22c5.55-5.22,5.53-5.37,1.36-11.54
		c-5.96-8.84-13.01-16.93-18.18-26.3c-5.04-9.12-4.35-14.95,2.4-22.84c1.4-1.64,2.89-3.25,4.53-4.66
		c14.92-12.85,30.46-24.9,47-35.56c13.1-8.44,21.27-6.97,31.25,5.14c28.08,34.1,54.06,69.83,80.89,104.9
		c8.8,11.5,17.87,22.87,23.95,36.18c0,2.67,0,5.33,0,8c-1.39,3.25-3.2,6.22-5.91,8.55c-16.68,14.34-33.84,28.1-51.98,40.55
		c-9.83,6.75-17.21,5.99-26.25-1.87c-3.66-3.19-6.81-6.85-9.73-10.71c-4.53-5.97-9.08-11.93-13.43-18.03
		c-1.89-2.66-3.59-2.93-6.11-0.93c-7.18,5.69-14.38,11.35-21.71,16.84c-3,2.24-3.38,4.27-1.35,7.5
		c6.14,9.72,11.52,19.86,16.48,30.25c34.94,73.25,45.59,149.88,31.03,229.67c-14.55,79.71-51.71,147.56-110.31,203.38
		c-53.52,50.98-116.99,82.85-189.69,96.35c-13.6,2.52-27.33,3.8-41.02,5.45c-17,0-34,0-51,0c-1.14-0.21-2.27-0.53-3.42-0.61
		c-15.8-1.05-31.46-3.19-46.91-6.6c-67.63-14.92-127.2-45.07-178.08-92.61C58.19,823.74,21.36,754.74,5.54,674.02
		C2.76,659.8,1.58,645.37,0,631c0-15,0-30,0-45c1.66-16.71,3.25-33.44,6.68-49.92c19.37-92.8,66.37-168.31,141.57-226.15
		c42.45-32.64,90.7-52.89,142.17-66.1c5.44-1.4,7.27-3.9,7.25-9.28c-0.08-19.32,0.09-38.65,0.37-57.97
		c0.06-4.45-1.38-6.28-6.01-6.26c-17.99,0.08-35.97-0.41-53.95-0.8c-18.31-0.4-34.75-10.17-35.4-33.51
		c-0.97-34.81-1.51-69.61,0.09-104.4C203.59,13.94,217.4,1,235.06,0.65C240.04,0.55,245.06,1.15,250,0z M370.04,883.94
		c146.89,5.6,282.83-120.54,279.13-283.93c-3.08-135.95-119.25-275.45-290.07-268.9c-131.97,5.06-267.29,115.5-263.57,284.44
		C98.93,770.05,229.37,886.92,370.04,883.94z"/>
	<path d="M175.64,468.37c11.87,4.35,22.66,8.23,33.39,12.25c58.04,21.72,116.17,43.19,173.71,66.21c8.66,3.46,17.44,6.78,25.13,12.2
		c15.62,11.01,22.97,26.19,24.59,45.26c2.36,27.62-16.63,50.52-35.53,59.28c-4.16,1.93-8.53,2.91-13,3.32
		c-7.98,0.72-15.99,0.69-23.97,0.14c-10.06-0.71-17.72-6.3-24.78-12.88c-17.23-16.06-32.25-34.16-47.61-51.94
		c-36.06-41.74-72.12-83.49-107.3-125.98C178.64,474.25,176.53,472.49,175.64,468.37z"/>
</g>
</svg>
