<svg id="Layer_1" height="128" viewBox="0 0 128 128" width="128" xmlns="http://www.w3.org/2000/svg" data-name="Layer 1"><path d="m116.331 32.269a1.75 1.75 0 0 0 -1.552-.94h-10.792a20.768 20.768 0 0 0 -18.449-13.962 20.528 20.528 0 0 0 -21.5 20.5c0 4.456 1.346 9.536 2.723 13.568a17.469 17.469 0 0 0 -3.3-1l-28.243-5.56a1.749 1.749 0 0 0 -2.063 2.01 68.419 68.419 0 0 0 5.129 15.815c.049.106.1.2.152.31-1.034-.205-2.078-.436-3.128-.7-11.7-2.963-18.308-6.73-18.374-6.768a1.752 1.752 0 0 0 -2.46.772c-.119.254-11.636 25.6 11.742 43.135 9.793 7.345 24.655 11.26 39 11.259 9.739 0 19.242-1.8 26.759-5.562 10.381-5.19 15.868-13.489 15.868-24 0-9.015-1.9-16.518-5.648-22.3a9.677 9.677 0 0 1 -.073-10.358 20.388 20.388 0 0 0 1.437-2.912c6.083-2.318 11.861-10.364 12.652-11.5a1.75 1.75 0 0 0 .12-1.807zm-79.175 16.555 25.629 5.051a13.978 13.978 0 0 1 11 16.4 11.632 11.632 0 0 1 -13.615 9.172c-15.204-3.947-21.295-23.572-23.014-30.623zm67.19 32.323c0 11.49-7.577 17.69-13.933 20.868-17.251 8.626-46.851 6.069-62.1-5.367-17.961-13.472-13.364-31.539-11.352-37.148a90.607 90.607 0 0 0 17.49 6.2c2.036.516 4.051.9 6.022 1.2 4.922 8.54 11.381 14.023 18.872 15.95.032.008.064.016.1.021a15.29 15.29 0 0 0 2.958.291 15.144 15.144 0 0 0 14.812-12.212 17.454 17.454 0 0 0 -5.561-16.425c-1.277-3.115-4.119-10.714-4.119-16.653a17.028 17.028 0 0 1 17.841-17.009 17.222 17.222 0 0 1 14.864 10.465h-5.6a1.75 1.75 0 0 0 -1.713 1.391c-.8 3.8-.614 11.466 5.786 13.252a6.266 6.266 0 0 0 .723.148c-.1.183-.19.375-.3.554a13.153 13.153 0 0 0 .127 14.078c3.372 5.206 5.083 12.068 5.083 20.396zm-2.525-38.647-.022.007a3.938 3.938 0 0 1 -2.148.1c-3.573-1-3.68-5.464-3.484-7.771h15.07c-2.758 3.312-6.437 6.789-9.416 7.664z"/><path d="m83.175 26.836a3.643 3.643 0 1 0 3.643 3.643 3.647 3.647 0 0 0 -3.643-3.643z"/><path d="m66.708 71.922a1.75 1.75 0 1 0 3.083 1.656c4.142-7.712-1.226-14.187-1.457-14.46a1.75 1.75 0 0 0 -2.675 2.258c.168.2 4.046 4.966 1.049 10.546z"/></svg>
