<?xml version="1.0" encoding="iso-8859-1"?>
<!-- Generator: Adobe Illustrator 18.1.1, SVG Export Plug-In . SVG Version: 6.00 Build 0)  -->
<svg version="1.1" id="Capa_1" xmlns="http://www.w3.org/2000/svg" xmlns:xlink="http://www.w3.org/1999/xlink" x="0px" y="0px"
viewBox="0 0 17.245 17.245" width="17" height="17"  style="enable-background:new 0 0 17.245 17.245;" xml:space="preserve">
<path d="M14.193,2.607c-0.064-0.167-0.227-0.278-0.407-0.278h0.04c-0.893-1.011-1.873-1.769-2.915-2.252
c-0.047-0.021-0.097-0.034-0.148-0.038C10.443,0.013,10.209,0,10.049,0c-0.44,0-2.578,0-2.578,0C5.7,0,5.58,0.862,5.58,1.585
c0,0.021,0.001,0.043,0.003,0.069c-0.922,0.135-1.408,0.66-1.408,1.531c0,0.063-0.249,0.139-0.24,0.231
C3.619,3.528,3.37,3.694,3.195,3.91C2.986,4.159,2.879,4.481,2.879,4.865c0,0.272,0.317,0.725,0.747,0.847
c-0.448,0.524-1.17,1.092-1.17,1.73c0,0.795,0.429,1.44,1.276,1.918c0.817,0.454,1.899,0.684,3.218,0.684h0.104
c-0.115,0.689-0.341,1.369-0.674,2.021l-0.207,0.356c-0.483,0.925-0.714,1.615-0.714,2.125c0,1.413,0.75,2.306,2.229,2.653
l0.14,0.034c0.114,0.027,0.159,0.009,0.26-0.053c0.1-0.063,0.17-0.161,0.196-0.275l0.598-2.648l2.483-2.563
c0.169-0.195,0.423-0.523,0.89-1.145l0.368-0.486c0.481-0.651,0.699-0.872,0.799-0.943c0.129-0.097,0.052-0.146,0.052-0.146
c0.173,0,0.582-0.102,0.651-0.259c0.44-0.99,0.664-2.018,0.664-3.057C14.789,4.651,14.589,3.625,14.193,2.607z"/>
</svg>
