<svg id="Layer_1" height="512" viewBox="0 0 128 128" width="512" xmlns="http://www.w3.org/2000/svg" data-name="Layer 1"><path d="m100.629 47.581a18.654 18.654 0 0 0 2.708-9.941 18.777 18.777 0 0 0 -37.552.231c0 8.309 5.1 19.287 5.1 19.287s-10.491 13.29-36.005 6.842c-12.122-3.063-18.821-6.942-18.821-6.942s-11.3 24.11 11.207 40.992c23.02 17.265 78.83 15.549 78.83-16.9 0-10.258-2.561-17.019-5.366-21.348a11.465 11.465 0 0 1 -.101-12.221z" fill="#fbbe2c"/><path d="m59.78 81.153c-19.893-5.115-24.9-34.562-24.9-34.562l28.243 5.567a15.711 15.711 0 0 1 12.377 18.453 13.383 13.383 0 0 1 -15.72 10.542z" fill="#fd9025"/><path d="m114.779 33.079h-20.143s-1.969 9.39 4.543 11.207 15.6-11.207 15.6-11.207z" fill="#e43c53"/><circle cx="83.175" cy="30.479" fill="#46595f" r="3.643"/><path d="m68.249 74.5a1.749 1.749 0 0 1 -1.54-2.578c3-5.58-.882-10.346-1.048-10.546a1.75 1.75 0 0 1 2.675-2.258c.23.272 5.6 6.748 1.457 14.46a1.749 1.749 0 0 1 -1.544.922z" fill="#fff"/></svg>