<svg xmlns="http://www.w3.org/2000/svg" viewBox="0 0 1006 906.5">
    <style>
        .st0{stroke:#666;stroke-miterlimit:10}.st0,.st1{fill:silver}.st2,.st3{fill:#f2f2f2;stroke:#666;stroke-miterlimit:10}.st3{fill:none;stroke:#000;stroke-width:30}.st4{stroke-width:20}.st4,.st5,.st6{fill:none;stroke:#000;stroke-miterlimit:10}.st6{fill:#a1ff11;stroke:#666}.st6,.st7{display:none}.st8{display:inline;fill:#666}.st9{display:none;fill:none;stroke:#000;stroke-width:30;stroke-miterlimit:10}.st10{fill:#f2f2f2}
    </style>
    <switch>
        <g>
            <g id="Слой_3">
                <path class="st0" d="M526.6 25.3c-24.3-7.6-95.9-29.2-184.3-12.7-31.3 5.9-58.3 15.3-83.4 27.2C222 57.3 189.5 80 154.8 104.4c-9.5 6.6-18.6 13.4-27.5 20.2-.2.2-.5.4-.7.5-2.5 1.9-4.9 3.8-7.3 5.7-.9.7-1.8 1.4-2.7 2.2-1.3 1.1-2.6 2.1-4 3.2 3.1-.3 6.3-.6 9.4-.9 8.5-.9 16.7-2.2 24.6-3.6 4.9-.2 9.9-.8 14.1-.8 2.4 0 5.8 0 7 2.5 1.5 3.2.1 8.9-.3 12.2-1 7.7-2.6 15.6 1.4 22.8l.1.1c1.3.7 2 2 2.3 3.5h.4c8.1 7.7 22.5 2 32.4 1.2 4.2-.4 13.2-.9 14.4 4.7v.3L201.3 216c.6 0 1.2.1 1.7.1-.1.3-.2.6-.2.9-.6 2.5.8 5.5 3.5 6.2 7.8 1.8 15.8 1.6 23.7.7-1 1.4-1.9 2.8-2.9 4.2-5.3 8.1-9.8 16.5-13.9 25.1 1.5.8 3 1.7 4.5 2.6 1 .6 2 1.1 3 1.7.7.3 1.3.6 2 1C265.4 195.1 329 147 403.6 124c31.5-9.7 65-15 99.8-15 116 0 218.4 58.4 279.3 147.5-23.4-47.1-100.4-182.3-256.1-231.2z"/>
                <path class="st0" d="M882.1 773.1c-8.5.8-16.7 2-24.6 3.3-4.9.1-9.9.7-14.1.6-2.4-.1-5.8-.1-6.9-2.6-1.5-3.2 0-8.9.4-12.2 1.1-7.7 2.8-15.6-1.1-22.8 0 0 0-.1-.1-.1-.9-.7-1.4-1.8-1.6-2.9-.2-.2-.4-.4-.5-.7-.2 0-.3 0-.5.1-8-7.8-22.5-2.3-32.3-1.5-4.2.3-13.2.7-14.3-4.9v-.3c5.9-12.5 11.7-25.1 17.6-37.6-.6-.1-1.2-.1-1.7-.2l.3-.9c.6-2.5-.7-5.5-3.4-6.2-7.8-1.9-15.8-1.8-23.7-1 1-1.4 2-2.8 2.9-4.2 5.4-8 10-16.4 14.2-25-1.5-.8-3-1.8-4.5-2.7-1-.6-2-1.2-3-1.7-.7-.3-1.3-.7-2-1-43.4 62.9-107.6 110.2-182.4 132.3-31.6 9.4-65.2 14.2-99.9 13.8-116-1.4-217.7-61-277.6-150.7 22.7 47.4 98.2 183.5 253.2 234.3 24.2 7.9 95.5 30.3 184.2 14.8 31.3-5.5 58.5-14.6 83.7-26.2 37.1-17.1 69.8-39.4 104.9-63.4 9.6-6.5 18.8-13.2 27.7-19.9.2-.2.5-.4.7-.5 2.5-1.9 4.9-3.7 7.4-5.6.9-.7 1.8-1.4 2.8-2.1 1.3-1 2.7-2.1 4-3.1-3.5.2-6.6.4-9.8.8z"/>
                <path class="st1" d="M782.7 260.2c-37.2-54.3-89.8-97.3-151.5-122.5-.1.6-48-3.2-88.7-7.2-4.1-.4-25.2-2.5-42.9 7.5-9.3 5.3-13.3 11.4-14.6 13.5-3.6 6-4.4 11.3-5.1 16.4-.6 4.1-2.5 18 4.2 32.2 2.7 5.8 6.4 10.8 6.8 11.4 2.7 3.6 4.4 4.9 8.6 10.4 8.3 10.7 13.7 19.1 19.4 28.1 9.6 15 14.4 22.8 18.6 33.6 3 7.9 2 7.5 4.8 14.6 6.6 17.2 16.2 28.6 21.8 35.2 3.9 4.6 13.9 15.9 29.7 26.5 12.6 8.5 23.8 13.2 32.8 17 8.3 3.5 15.4 5.9 20.6 7.5-1.3 11.5-6.1 40.7-29.3 65.7-4.8 5.2-19.2 19.8-41.9 28.1-15.6 5.7-26.4 5.3-29.3 5.1-5.2-.3-13.9-.8-22.9-5.9-6.4-3.6-6.3-5.8-15-11.5-5-3.3-10.2-6.7-17.8-8.7-4.5-1.2-13.2-3.4-22.9-.4-5.9 1.8-10 4.8-13.1 7.1-2.8 2.1-6.5 4.8-9.9 9.5-3.5 4.8-5.4 9.7-6.3 13.9 6.7-.5 12.2.1 15.8.8 8 1.4 10.4 3.2 11.6 4.3.8.8 4 3.9 3.8 8.3-.2 2.7-1.6 5.4-3.9 7.1-5.3 4-10.9-1.1-17 2.4-3.3 1.9-5.7 5.9-5.3 9.6.4 4.2 4.3 6.8 6.9 8.6 5 3.4 8.5 3.4 14.6 5.1 7.2 2.1 12.1 5.2 16.6 8 5.3 3.3 9.4 7.6 17.4 16.1 9.9 10.4 14.9 15.8 19.4 23.7 3.3 5.9 5.6 10 7.1 16.2 2 8.5.7 13.4 4.7 20.6 1.6 2.9 2.1 2.6 5.9 7.5 4.8 6.1 6.6 9.9 12 19.4 5.5 9.6 8.2 14.4 12.1 20.2 5.4 8 4.8 5.9 14.5 19.5 3 4.2 5.2 7.4 9.2 11.3 4.6 4.5 7.6 7.3 12 8 2 .3 5.3.4 14.8-5 7.5-4.2 12.3-8.2 17-11.9 4.4-3.4 10.9-8.4 19.1-14.4-1.7 7.4-4.9 18-11.1 29.9-4.5 8.7-8.9 14.5-15.2 23-6.1 8.1-12.8 17.1-23.3 27.3-11.2 10.9-17.6 17-27.7 21.4-4.8 2-16.9 6.5-18.7 7.1-1 .4-8.2 3-11.1 4-5.2 1.7-12.6 3.4-30.7 2.9l-.9.6c119.5-1.7 224.1-65.4 282.9-160.4 18.3-29.6 32.2-62.2 40.7-97-.6.3-1.3.4-2.1.4-6.4 0-6.4-10 0-10 1.8 0 3.1.8 3.9 1.9 4.9-22.1 7.6-44.9 7.9-68.4v-4.8c-.1-70.4-21.8-136.1-59-190.4z"/>
                <path class="st1" d="M495.6 787.9c-10.7-.6-19.8-1.3-31.5-3.5-26.8-5-48.4-14.2-63.9-22.4 47.6 10.8 85.2 12.4 101.8 8.2 12.5-3.2 21.9-9.6 21.9-9.6 4.5-3.1 10.5-7.2 14.8-14.9 4.8-8.6 5-17.1 5.1-23.7.1-3.3.1-8.7-1.4-14.9-2.9-11.3-9.5-18.6-12.4-22-7.8-9.1-15.2-23.7-29.8-52.8-13-25.8-9.6-25.4-17.9-38-12-18-26.1-29-33.8-34.8-10.6-8.1-26.5-20.3-41.1-25.8-1.7-.6-8.5-3.1-15.3-9-2.6-2.3-5.7-4.9-7.9-9-3.9-7.3-2.4-14.8-1-21.6 2.3-11.5 7.4-19.5 11.6-25.9 1.3-2 6.2-9.3 14.4-17.4 3.9-3.8 13.1-12.4 27.3-20 7.4-3.9 17.2-9.1 31-11.1 5.2-.8 9.8-1.4 15.7-.1 6.3 1.3 8.1 3.5 20.7 11.2 7.2 4.4 2.3 1 24.3 13.2 6.3 3.5 8.9 5 13.2 5.3 6.1.4 11.1-2 15.6-4.2 6.4-3.2 10.7-6.9 14.5-10.3 5.9-5.3 13.5-12.5 22.2-21.9-4.2.5-7.7.5-10.4.4-6.6-.3-10.1-.5-13.2-2.9-.5-.4-3.7-2.9-4.6-7.1-1.3-5.9 2.3-12.7 9.2-16.8-12.5-5.8-21.5-12.5-27.4-17.4-12.5-10.5-19.5-20.6-28.5-33.8-4.2-6.1-9.7-14.9-14.8-27.4-5.4-13.2-4.8-17.4-10.7-30.6-4.4-10-8.9-16.8-13.1-23.2-8.8-13.5-16.4-21.8-27.4-33.8-1.2-1.3-5.5-5.9-11.9-10.9-4.8-3.7-8.3-5.8-12.1-7.3-1.9-.7-4.1-1.6-7.2-2-4-.5-6.9.1-11.4 1.1-5.6 1.2-9.8 2.8-11.6 3.5-5.3 2.2-9.2 4.5-11.7 6.2-15.6 10.2-22.6 21.6-25 20.2-2.2-1.3 1.5-12.1 4.9-19 3.2-6.5 6.8-11.1 11.5-17 4.6-5.8 8.6-9.9 11.1-12.5 5.3-5.4 9.8-9.4 12.7-11.9 4.2-3.5 8.4-6.6 16.6-12.7 9.4-6.9 14.2-10.3 18.2-12.8 7.8-5.1 20-11.9 37.5-17.7-7.7.6-17.7 1.7-29.2 3.5-89.8 13.9-148 53.5-148.5 52.4-33.5 26-62.1 58.2-83.8 94.8l-2.1 3.5c-21.3 36.8-35.8 77.9-41.9 121.8-2.2 15.4-3.3 31.2-3.3 47.2v4.8c2.5 181.7 148.4 328.8 329.7 333.3-.2-.1 0-.5.3-.9z"/>
                <path class="st2" d="M795.8 679.5c2.7.6 4.1 3.7 3.5 6.2-1.8 7-5.8 13.3-9.1 19.6-2.8 5.1-8.2 13.2-7 19.3 1.1 5.6 10.2 5.2 14.5 4.9 11.2-.9 28.5-7.8 35.5 5 4 7.2 2.3 15.1 1.2 22.8-.5 3.3-1.9 9-.4 12.2 1.2 2.5 4.6 2.5 7 2.6 11.3.3 27.3-4.2 35 6.6 5.2-3.8 10.2-7.7 15.2-11.6 39.5-30.9 72.6-62.8 100-93-21.4-15.2-63-40.1-120.8-47.8-26.8-3.5-50.5-2.5-69.5 0-3.3 5.2-6.1 10.7-8.7 16.3-5.1 11-10.7 21.6-17.5 31.6-1 1.4-2 2.8-2.9 4.2 7.9-.7 16-.8 24 1.1z"/>
                <path class="st2" d="M231.1 227.4c-1 1.4-1.9 2.8-2.9 4.2-6.6 10.1-12.1 20.8-17 31.8-2.5 5.7-5.3 11.2-8.5 16.4-.2 0-.3 0-.4.1-.8.1-1.5.2-2.3.3-2.9.4-5.9.7-9 1-.8.1-1.7.2-2.6.2-1.7.2-3.5.3-5.2.4-.8 0-1.6.1-2.3.1-1.6.1-3.2.2-4.8.2-.8 0-1.6.1-2.4.1-.8 0-1.5 0-2.3.1h-5.1c-10 0-20.7-.6-32-2-57-7.1-98.2-31.7-119.5-46.7 26.7-30.5 59-62.7 97.7-93.9 1.4-1.1 2.7-2.2 4.1-3.3.9-.7 1.8-1.5 2.7-2.2 2.6-2.1 5.3-4.2 8-6.3 7.7 10.7 23.4 6.1 34.5 6.3 2.4 0 5.8 0 7 2.5 1.5 3.2.1 8.9-.3 12.2-1 7.7-2.6 15.6 1.4 22.8 7.1 12.7 24 5.7 35.1 4.7 4.2-.4 13.2-.9 14.4 4.7 1.2 6.2-4.1 14.2-6.7 19.4-3.3 6.3-7.1 12.7-8.8 19.7-.6 2.5.8 5.5 3.5 6.2 7.8 2 15.8 1.8 23.7 1z"/>
                <path class="st3" d="M841.6 450.8v4.8c-.9 63.4-19.2 122.6-50.5 173.1-59.6 96.3-166.2 160.4-287.7 160.4-185.2 0-335.6-148.9-338.2-333.4v-4.8c0-16 1.1-31.8 3.3-47.2 6.1-43.9 20.7-85 41.9-121.8l2.1-3.5c42.4-71.3 110.3-125.8 191.2-150.7 31.5-9.7 65-15 99.8-15 116 0 218.4 58.4 279.3 147.5 37.1 54.2 58.8 119.9 58.8 190.6z"/>
                <path class="st4" d="M218.2 635.6c14.7 31.9 90.9 188.6 261.1 242.1 24.3 7.6 95.9 29.2 184.4 12.7 77.3-14.5 129.2-50.9 187.5-91.8 58.1-40.7 104.1-84.8 140-125.8-21.2-15-62.4-39.6-119.5-46.7-32.5-4.1-60.4-1.2-80.6 2.6"/>
                <path class="st4" d="M749.6 682.8c18 1.4 36.1 2.8 54.1 4.3-7.6 16.9-15.3 33.8-22.9 50.6 18.7-2.4 37.5-4.7 56.2-7.1-4.5 16.4-9 32.7-13.5 49.1 19.2-4.3 39-8.3 59.3-11.9 4-.7 8-1.4 11.9-2"/>
                <path class="st4" d="M214.9 277.8c-.8.1-1.6.3-2.4.5-3.1.5-6.3 1.1-9.7 1.5-.1 0-.3 0-.4.1-.8.1-1.5.2-2.3.3-2.9.4-5.9.7-9 1-.9.1-1.7.2-2.6.2-1.7.2-3.5.3-5.2.4-.8 0-1.5.1-2.3.1-1.6.1-3.2.2-4.8.2-.8 0-1.6.1-2.4.1-.8 0-1.5 0-2.3.1h-5.1c-10 0-20.7-.6-32-2-57-7.1-98.2-31.7-119.5-46.7 26.7-30.5 59-62.7 97.7-93.9 1.3-1.1 2.7-2.2 4.1-3.3.9-.7 1.8-1.4 2.7-2.2 2.6-2.1 5.3-4.2 8-6.3 8.8-6.8 18-13.5 27.5-20.2 34.8-24.4 67.2-47.1 104.1-64.6 25.1-11.9 52.1-21.3 83.4-27.2 88.5-16.6 160.1 5 184.3 12.7 155.6 48.9 232.7 184.1 256 231.3 2.2 4.4 3.9 8.1 5.2 10.8"/>
                <path class="st4" d="M252.2 223.4c-16.6-1.3-33.2-2.6-49.8-4 7.6-16.9 15.3-33.8 22.9-50.6-18.7 2.4-37.5 4.7-56.2 7.1 4.5-16.4 9-32.7 13.5-49.1-18 5.2-37.8 9.5-59.3 11.9-3.6.4-7.2.7-10.7 1"/>
                <path d="M296.3 183.4c-.6-1.2 60.2-56.3 153.6-70.6 99.4-15.2 181.4 24.1 181.3 24.8-.1.6-48-3.2-88.7-7.2-4.1-.4-25.2-2.5-42.9 7.5-9.3 5.3-13.3 11.4-14.6 13.5-3.6 6-4.4 11.3-5.1 16.4-.6 4.1-2.4 18 4.2 32.2 2.7 5.8 6.4 10.8 6.8 11.4 2.7 3.6 4.4 4.9 8.6 10.4 8.3 10.7 13.7 19.1 19.4 28.1 9.6 15 14.4 22.8 18.6 33.6 3 7.9 2 7.5 4.7 14.6 6.6 17.2 16.2 28.6 21.8 35.2 3.9 4.6 13.9 15.9 29.7 26.5 12.6 8.5 23.8 13.2 32.8 17 8.3 3.5 15.4 5.9 20.6 7.5-1.3 11.5-6.1 40.7-29.3 65.7-4.8 5.2-19.2 19.8-41.9 28.1-15.6 5.7-26.4 5.3-29.3 5.1-5.2-.3-13.9-.8-22.9-5.9-6.4-3.6-6.3-5.8-15-11.5-5-3.2-10.2-6.6-17.8-8.7-4.5-1.2-13.1-3.4-22.9-.4-5.8 1.8-10 4.8-13.1 7.1-2.8 2.1-6.5 4.8-9.9 9.5-3.5 4.8-5.3 9.7-6.3 13.8 6.7-.5 12.1.1 15.8.8 8 1.4 10.4 3.2 11.6 4.3.8.8 4 3.9 3.7 8.3-.2 2.7-1.6 5.4-3.9 7.1-5.3 4-10.9-1.1-17 2.4-3.3 1.9-5.7 5.9-5.3 9.6.4 4.2 4.2 6.8 6.9 8.6 5 3.4 8.5 3.4 14.6 5.1 7.2 2.1 12.1 5.2 16.6 8 5.3 3.3 9.4 7.6 17.4 16.1 9.9 10.4 14.9 15.8 19.4 23.7 3.3 5.9 5.6 10 7.1 16.2 2 8.5.7 13.4 4.7 20.6 1.6 2.9 2.1 2.6 5.9 7.5 4.8 6.1 6.6 9.9 12 19.4 5.5 9.6 8.2 14.4 12.1 20.2 5.4 8 4.8 6 14.5 19.5 3 4.2 5.2 7.4 9.2 11.3 4.6 4.5 7.6 7.3 12 8 1.9.3 5.3.4 14.8-5 7.5-4.2 12.3-8.2 17-11.9 4.4-3.4 10.9-8.4 19.1-14.4-1.7 7.4-4.9 18.1-11.1 29.9-4.5 8.7-8.9 14.5-15.2 23-6.1 8.1-12.8 17.1-23.3 27.3-11.2 10.9-17.6 17-27.7 21.4-4.8 2.1-16.9 6.5-18.7 7.1-1 .4-8.2 3-11.1 3.9-5.9 1.9-14.6 3.8-38.6 2.6-13.4-.7-23.5-1.2-37.2-3.8-26.8-5-48.4-14.2-63.9-22.4 47.6 10.8 85.2 12.4 101.8 8.2 12.5-3.2 21.9-9.6 21.9-9.6 4.5-3.1 10.4-7.2 14.8-14.9 4.9-8.6 5-17.1 5.1-23.7.1-3.3.1-8.7-1.5-14.9-2.9-11.3-9.5-18.6-12.4-22-7.8-9.1-15.1-23.7-29.8-52.7-13-25.8-9.6-25.4-17.9-38-12-18-26.1-28.9-33.8-34.8-10.6-8.1-26.5-20.3-41.1-25.8-1.7-.6-8.4-3.1-15.3-9-2.6-2.2-5.7-4.9-7.9-9-3.9-7.3-2.4-14.8-1.1-21.6 2.3-11.5 7.4-19.5 11.6-25.9 1.3-2 6.2-9.3 14.4-17.4 3.8-3.8 13.1-12.4 27.3-20 7.4-3.9 17.2-9.1 31-11.1 5.2-.7 9.8-1.4 15.7-.1 6.3 1.3 8.1 3.5 20.7 11.2 7.2 4.4 2.3 1 24.3 13.2 6.3 3.5 8.9 5 13.2 5.3 6.1.4 11.1-2 15.6-4.2 6.4-3.2 10.7-6.9 14.5-10.3 5.9-5.3 13.5-12.5 22.2-21.9-4.2.5-7.7.5-10.4.4-6.6-.3-10-.5-13.2-2.9-.5-.4-3.7-2.9-4.6-7.1-1.3-5.9 2.3-12.7 9.2-16.7-12.5-5.8-21.5-12.5-27.4-17.4-12.5-10.5-19.5-20.6-28.5-33.8-4.2-6.1-9.7-14.9-14.8-27.4-5.4-13.2-4.8-17.4-10.7-30.6-4.4-10-8.9-16.8-13.1-23.2-8.8-13.5-16.4-21.8-27.4-33.8-1.2-1.3-5.5-5.9-11.9-10.9-4.8-3.7-8.3-5.8-12.1-7.3-1.9-.7-4.1-1.6-7.2-2-4-.5-6.9.1-11.4 1.1-5.6 1.2-9.8 2.8-11.6 3.5-5.3 2.2-9.2 4.6-11.7 6.2-15.6 10.2-22.6 21.6-25 20.2-2.2-1.3 1.5-12.1 4.9-19 3.2-6.5 6.8-11.1 11.5-16.9 4.6-5.8 8.6-9.9 11.1-12.5 5.3-5.4 9.8-9.5 12.7-11.9 4.2-3.5 8.4-6.6 16.6-12.7 9.4-6.9 14.2-10.3 18.2-12.9 7.8-5.1 20-11.9 37.5-17.7-7.7.6-17.7 1.7-29.2 3.4-89.9 14.3-148 53.9-148.6 52.8z"/>
                <path class="st6" d="M166.4 421.4c-105.9-31.9-141.6-84.8-150-98.3-31.4-50-31.1-102.8-30.9-130.5.2-26.4.8-114 58.2-170.9 40.6-40.2 90.3-46 160.2-54.6 356.5-44.1 372.5-57.2 438-34.5C671.5-57.1 811-8.7 829.4 94c10.2 56.9-21.2 106.1-40.4 135.3-125.9 191.8-422.9 252.2-622.6 192.1z"/>
            </g>
            <g id="Слой_1">
                <g class="st7">
                    <path class="st8" d="M841.6 450.8c0 65.2-18.5 126.2-50.5 177.8-59.6 96.4-166.2 160.5-287.7 160.5-186.8 0-338.2-151.4-338.2-338.2 0-63 17.3-122.1 47.3-172.6-20 3.6-46.9 6-78.1 2.1-57-7.1-98.2-31.7-119.5-46.7 35.9-41 82-85.1 140-125.8C213.2 67 265.2 30.6 342.4 16.1c88.5-16.6 160.1 5 184.3 12.7 155.6 48.9 232.7 184.1 256 231.3 37.2 54.3 58.9 120 58.9 190.7z"/>
                    <path class="st8" d="M165.1 455.6c0-65.2 18.5-126.2 50.5-177.8 59.6-96.3 166.2-160.4 287.8-160.4 186.8 0 338.2 151.4 338.2 338.2 0 63.1-17.3 122.1-47.3 172.6 20-3.6 46.9-6 78.1-2.1 57 7.1 98.2 31.7 119.5 46.7-35.9 41-82 85.1-140 125.8-58.4 40.9-110.3 77.3-187.5 91.8-88.5 16.6-160.1-5-184.3-12.7-155.6-48.9-232.7-184.1-256-231.3-37.2-54.3-59-120-59-190.8z"/>
                </g>
                <path class="st10" d="M658.1 469.6c-3.8 2.1-6.3 3.3-6.1 4.1.3 1.1 5.2.7 5.9.7 6.8-.5 11.8-3 13.8-4 5-2.6 11.9-6.5 19.7-12.2-4.8 6.2-11.6 14.2-20.6 22.5-4.8 4.4-12.8 12.1-23.7 18.5-17.3 10.2-37 16.1-57 17.7-18 1.5-36.7-.4-53-8.3-10.9-5.3-20.5-13.2-27.7-22.8-5.2-7-8.8-14.9-7-23.7 2.1 1.2 3.9 2.3 5.2 3.2 1.7 1.1 3.4 2.2 5.4 3.7 2 1.6 2.1 1.9 4.2 3.6 2.1 1.7 4.9 4.1 8.8 6 .5.3 2.6 1.3 5.9 2.3 0 0 7.3 2.3 15.7 2.4 16.9.2 35.2-8 35.2-8 25.3-11.3 39.5-29.9 44.8-37.5 9.3-13.5 15.4-29.5 18.5-45.6.7-3.6 1-6.5.8-9.6-.6-8.6-4.5-13.6-3.6-14.2 1-.6 7.6 4.8 10.8 13.3 2.9 7.5 1.7 13.6 3.7 14 1.9.4 4.6-5 5.4-6.6 3.1-6.2 2.8-10.8 3.7-10.8 1.2-.1 3.7 7.3 3.4 16.2-.4 11.8-5.6 19-3.8 20.2 1.5 1 6.3-2.8 9.6-7.4 6.1-8.4 5.6-17.6 7.4-17.6 1.3 0 2.3 4.8 2.6 6.2 2.8 14.1-1.5 25.3-1.5 25.3-2.5 6.6-6 10.9-7.6 12.9-1.7 2.1-3.8 4.6-7.3 7.3-3.5 2.6-6.1 3.6-5.9 4.3.3.9 4.8.3 8.4-.6 2.2-.6 6.7-1.8 11.2-5.5 2.6-2.1 4.1-4 4.6-3.7.6.4-.8 3.3-1.4 4.5-.9 1.9-1.8 3.3-2.8 4.9-1.8 2.6-2.6 3.9-4.3 6-3.9 5-6.5 8.3-10.6 11.5-3.7 2.8-8 5.3-10.8 6.8z"/>
                <path class="st10" d="M392.2 409.8c11.3-10.7 21.5-16.1 23.6-17.1 7.2-3.7 15.6-8.1 27.4-9.3 13.3-1.3 23.7 2.1 30.4 4.3 10.6 3.5 17.9 8.2 21.8 10.8 5.2 3.4 10.5 7 15.9 13.3 4.4 5.1 10.2 12.1 10.1 21.5 0 2.8-.5 5-.9 6.5-2.3-1.2-5.3-2.7-8.8-4.7-6.2-3.4-9.3-5.1-12.1-7-4.6-3.1-6.8-5-11.4-6.9-2.4-1-4.3-1.5-5.1-1.6-2.3-.5-4.5-.7-7.1-.7-7.7.1-15.6 2.1-16.2 2.3-9.1 2.4-15.7 5.7-17.9 6.7-27.8 13.8-44.1 35.8-44.1 35.8-6.6 8.9-12.6 17.1-14.6 29.7-1.5 9.3-.3 17.2.9 22.2-5.2-3.4-15.4-11.2-20.6-24.8-7.4-19.3.4-37.3 4.7-48 6.9-16.6 17.3-26.6 24-33z"/>
                <path d="M457.1 347.1c-1.6-5-5.2-14-13.7-21.6-17.4-15.7-40.2-12.2-43.5-11.6.8 5 3 13.8 10.1 21.5 11 12 29.2 16.3 47.1 11.7z"/>
                <path d="M597.2 597.1c-.9-4.7-3.6-16-13.5-25.1-18.7-17.3-45-9.9-46.6-9.4 0 5.1.9 15.2 7.8 23.9 10.8 13.6 31.9 18.1 52.3 10.6z"/>
            </g>
        </g>
    </switch>
</svg>
